<?xml version="1.0" encoding="utf-8"?>
<!-- Generator: Adobe Illustrator 21.0.0, SVG Export Plug-In . SVG Version: 6.00 Build 0)  -->
<svg version="1.1" xmlns="http://www.w3.org/2000/svg" xmlns:xlink="http://www.w3.org/1999/xlink" x="0px" y="0px"
	 viewBox="0 0 500 500" style="enable-background:new 0 0 500 500;" xml:space="preserve">
<style type="text/css">
	.st0{display:none;}
	.st1{display:inline;}
	.st2{fill:none;stroke:#000000;stroke-width:20;stroke-linecap:round;stroke-linejoin:round;stroke-miterlimit:10;}
	.st3{opacity:0.6;}
	.st4{display:inline;opacity:0.6;}
	.st5{fill:none;stroke:#000000;stroke-width:20;stroke-linecap:round;stroke-miterlimit:10;}
	.st6{fill:none;stroke:#000000;stroke-width:20;stroke-miterlimit:10;}
	.st7{display:inline;fill:none;stroke:#000000;stroke-width:20;stroke-linecap:round;stroke-linejoin:round;stroke-miterlimit:10;}
	.st8{fill:#FFFFFF;stroke:#000000;stroke-width:20;stroke-linecap:round;stroke-linejoin:round;stroke-miterlimit:10;}
	.st9{display:inline;opacity:0.5;}
	.st10{fill:#FBB03B;}
	.st11{fill:#FFFFFF;}
</style>
<g id="guides">
</g>
<g id="breast_x5F_right" class="st0">
	<ellipse class="st1" cx="383" cy="282" rx="18" ry="20"/>
	<g class="st1">
		<path class="st2" d="M226,56c0,0,4,26,65,114s86,100,86,100v24c0,0-21,57-57,81s-97,29-115,25"/>
		<path class="st3" d="M391,366L391,366C391,366,391,366,391,366C391,366,391,366,391,366L391,366c-0.6,0.5-27,25.3-26,52
			c1,26.7,25.4,27,26,27v0c0,0,0,0,0,0s0,0,0,0v0c0.6,0,25-0.3,26-27C418,391.3,391.6,366.6,391,366z"/>
	</g>
</g>
<g id="breast_x5F_left" class="st0">
	<g class="st1">
		<path class="st2" d="M274,57c0,0-4,26-65,114s-86,100-86,100v24c0,0,21,57,57,81s97,29,115,25"/>
		<ellipse cx="117" cy="283" rx="18" ry="20"/>
		<path class="st3" d="M109,366L109,366C109,366,109,366,109,366C109,366,109,366,109,366L109,366c0.6,0.5,27,25.3,26,52
			c-1,26.7-25.4,27-26,27v0c0,0,0,0,0,0s0,0,0,0v0c-0.6,0-25-0.3-26-27C82,391.3,108.4,366.6,109,366z"/>
	</g>
</g>
<g id="pump" class="st0">
	<path class="st4" d="M224,191L224,191C224,191,224,191,224,191C224,191,224,191,224,191L224,191c-0.6,0.5-27,25.3-26,52
		c1,26.7,25.4,27,26,27v0c0,0,0,0,0,0s0,0,0,0v0c0.6,0,25-0.3,26-27C251,216.3,224.6,191.6,224,191z"/>
	<path class="st4" d="M125,356c34-17,73.1-11.2,91,0c16,10,54,0,68-5s39-14.7,39-14.7v43c0,31.9-25.8,57.7-57.7,57.7h-82.6
		c-31.9,0-57.7-25.8-57.7-57.7V356z"/>
	<g class="st1">
		<path class="st2" d="M341,62.5c0,0-20,0-33,17s-12,35-12,35v14v9v14c0,0-1,18,12,35s33,17,33,17h34v-66v-9v-66H341z"/>
		<path class="st2" d="M296,96.5H167c0,0-16-2-16,35s16,37,16,37h129"/>
		<line class="st5" x1="296" y1="133.8" x2="223" y2="133.8"/>
		<line class="st5" x1="190.7" y1="168.5" x2="190.7" y2="213.5"/>
		<line class="st5" x1="259" y1="168.5" x2="259" y2="213.5"/>
		<path class="st2" d="M271.3,437.5h-94.6c-28.6,0-51.7-23.2-51.7-51.7V266.2c0-28.6,23.2-51.7,51.7-51.7h94.6
			c28.6,0,51.7,23.2,51.7,51.7v119.6C323,414.3,299.8,437.5,271.3,437.5z"/>
		<line class="st2" x1="125" y1="271.8" x2="178" y2="271.8"/>
		<line class="st2" x1="125" y1="372.5" x2="178" y2="372.5"/>
		<line class="st2" x1="125" y1="322.5" x2="162" y2="322.5"/>
	</g>
</g>
<g id="bottle" class="st0">
	<g class="st1">
		<g>
			<path class="st2" d="M297.3,441h-94.6c-28.6,0-51.7-23.2-51.7-51.7V255.7c0-28.6,23.2-51.7,51.7-51.7h94.6
				c28.6,0,51.7,23.2,51.7,51.7v133.6C349,417.8,325.8,441,297.3,441z"/>
			<g>
				<line class="st2" x1="151" y1="257.5" x2="204" y2="257.5"/>
				<line class="st2" x1="151" y1="387.5" x2="204" y2="387.5"/>
				<line class="st2" x1="151" y1="322.5" x2="188" y2="322.5"/>
			</g>
		</g>
		<path class="st2" d="M321.3,204H179.7c-8.1,0-14.7-6.6-14.7-14.7v-25.7c0-8.1,6.6-14.7,14.7-14.7h141.7c8.1,0,14.7,6.6,14.7,14.7
			v25.7C336,197.4,329.4,204,321.3,204z"/>
		<path class="st2" d="M300,118c-10-10-17-14-24-15s-2-13-2-13s4-30-24-30s-24,30-24,30s5,12-2,13s-14,5-24,15s-9,31-9,31h59h59
			C309,149,310,128,300,118z"/>
		<path class="st3" d="M300,118c-10-10-17-14-24-15s-2-13-2-13s4-30-24-30s-24,30-24,30s5,12-2,13s-14,5-24,15s-9,31-9,31h59h59
			C309,149,310,128,300,118z"/>
	</g>
	<path class="st4" d="M349,287c-34,17-73.1,11.2-91,0c-16-10-54,0-68,5s-39,14.7-39,14.7v-43c0-31.9,25.8-57.7,57.7-57.7h82.6
		c31.9,0,57.7,25.8,57.7,57.7V287z"/>
</g>
<g id="meal" class="st0">
	<g class="st1">
		<g>
			<circle class="st6" cx="195.9" cy="250" r="141"/>
			<circle class="st6" cx="195.9" cy="250" r="89"/>
		</g>
		<g>
			<path class="st2" d="M386,217.8c0,0,2,28,2,47.7s-6.4,102.7-4.6,112.5c1.8,9.8,8.1,21.5,20.6,21.5"/>
			<path class="st2" d="M423.6,217.8c0,0-3.6,28-3.6,47.7s7,102.7,5.2,112.5c-1.8,9.8-8.1,21.5-20.6,21.5"/>
			<g>
				<path class="st2" d="M423.3,217.5c13.5-7.4,21.8-32.7,21.8-56.7c0-34.1-18.6-60.3-41.6-60.3c-23,0-41.6,26.2-41.6,60.3
					c0,24.5,10.5,50,24.4,57.2"/>
			</g>
		</g>
	</g>
</g>
<g id="diaper" class="st0">
	<g class="st1">
		<g>
			<g>
				<path class="st2" d="M73,201v19c0,0-6,64,59,118s117,50,117,50"/>
				<polyline class="st2" points="250,112 73,112 73,143 				"/>
				<path class="st2" d="M176,172c0-27-30.8-29-30.8-29H54v58h91.2C145.2,201,176,199,176,172z"/>
			</g>
			<path class="st2" d="M79.4,258.9c0,0,8.6-18.9,46.6-18.9s67,29,76,52s4.3,67.2-4.4,81.6"/>
		</g>
		<g>
			<g>
				<path class="st2" d="M427,201v19c0,0,6,64-59,118s-117,50-117,50"/>
				<polyline class="st2" points="250,112 427,112 427,143 				"/>
				<path class="st2" d="M324,172c0-27,30.8-29,30.8-29H446v58h-91.2C354.8,201,324,199,324,172z"/>
			</g>
			<path class="st2" d="M420.6,258.9c0,0-8.6-18.9-46.6-18.9s-67,29-76,52s-4.3,67.2,4.4,81.6"/>
		</g>
	</g>
</g>
<g id="sleep" class="st0">
	<g class="st1">
		<g>
			<g>
				<path class="st2" d="M229.5,155.9c-65,0-119.6,49.6-135.5,111.4"/>
				<path class="st2" d="M91.3,326.7c11.1,65.1,68.7,109.4,138.2,109.4"/>
				<path class="st2" d="M94,267.3c-0.6,0-1.2-0.1-1.8-0.1c-16.4,0-29.7,16.2-29.7,32.6c0,16.1,12.8,26.5,28.8,26.9"/>
			</g>
			<g>
				<path class="st2" d="M229.5,436.1c69.5,0,127.1-44.4,138.2-109.5"/>
				<path class="st2" d="M364.9,267.2c-15.9-61.7-70.5-111.3-135.5-111.3"/>
				<path class="st2" d="M367.7,326.7c15.5-0.8,27.8-11,27.8-26.8c0-16.4-13.3-32.6-29.7-32.6c-0.3,0-0.5,0-0.8,0"/>
			</g>
		</g>
		<path class="st5" d="M229.5,157.8c0,0-32.6,13.4-30.7,39.3s29.7,38.4,47,25.9s12.5-29.7,3.8-33.6"/>
		<path class="st5" d="M149.8,291.2c0,0,5.8,16.3,22.1,16.3s23-16.3,23-16.3"/>
		<path class="st5" d="M307.2,291.2c0,0-5.8,16.3-22.1,16.3s-23-16.3-23-16.3"/>
		<circle class="st6" cx="229.5" cy="370.9" r="4.8"/>
	</g>
	<polyline class="st7" points="330.9,121 359,121 330.9,159 359,159 	"/>
	<polyline class="st7" points="389.9,65 436.5,65 389.9,128 436.5,128 	"/>
</g>
<g id="growth" class="st0">
	<g class="st1">
		<path class="st2" d="M393.7,350L350,393.7c-7.7,7.7-20.2,7.7-27.9,0L106.3,177.9c-7.7-7.7-7.7-20.2,0-27.9l43.6-43.6
			c7.7-7.7,20.2-7.7,27.9,0l215.8,215.8C401.4,329.8,401.4,342.3,393.7,350z"/>
		<g>
			<line class="st2" x1="186.9" y1="115.8" x2="174.8" y2="127.9"/>
			<line class="st2" x1="237.3" y1="166.1" x2="225.1" y2="178.3"/>
			<line class="st2" x1="211.6" y1="141.4" x2="186" y2="167.1"/>
		</g>
		<g>
			<line class="st2" x1="334.7" y1="263.6" x2="322.6" y2="275.7"/>
			<line class="st2" x1="385" y1="313.9" x2="372.9" y2="326"/>
			<line class="st2" x1="359.4" y1="289.2" x2="333.7" y2="314.8"/>
		</g>
	</g>
	<g class="st1">
		<path class="st2" d="M194.5,355.7l-50-50c-0.2-0.2-0.2-0.4,0-0.6l199.9-199.9c5.7-5.7,15-5.7,20.8,0l29.7,29.7
			c5.7,5.7,5.7,15,0,20.8L195,355.7C194.9,355.9,194.6,355.9,194.5,355.7z"/>
		<path class="st8" d="M194.5,355.7l-50-50c-0.2-0.2-0.2-0.4,0-0.6l199.9-199.9c5.7-5.7,15-5.7,20.8,0l29.7,29.7
			c5.7,5.7,5.7,15,0,20.8L195,355.7C194.9,355.9,194.6,355.9,194.5,355.7z"/>
		<line class="st2" x1="322.3" y1="130.5" x2="369.8" y2="178"/>
		<polygon class="st2" points="144.8,306 100.8,399 194.8,356 		"/>
		<line class="st2" x1="118.8" y1="362" x2="137.3" y2="380.5"/>
	</g>
</g>
<g id="pee" class="st0">
	<g class="st1">
		<g>
			<path d="M375.2,239.8c-23.7-19.5-103.3-1.5-140.3-11.6c-0.3,1.8-0.5,3.7-0.7,5.5c-0.7,5.6-5.5,9.8-11,9.8c-0.4,0-0.9,0-1.4-0.1
				c-6.1-0.7-10.4-6.3-9.7-12.4c0.5-3.9,1-7.7,1.6-11.4c0.3-1.6,0.8-3,1.7-4.3c0,0,0,0,0,0c-22.4-26.2-40.6-78.6-86.2-70.4
				c-49.8,8.9-76.4,90-62.6,127.9c13.8,37.8,33.7,121.8,79.7,145.7c46,23.9,55.5,22.7,77.9,14.1c29.5-11.3,49.5-42,78.8-41
				c29.3,1,66.9,4.2,89.5-27C414.9,333.3,402.4,262.1,375.2,239.8z M221.3,299c-0.1,0-0.2,0-0.4,0c-6,0-10.9-4.8-11.1-10.8
				c-0.1-3.8-0.2-7.7-0.2-11.4c0-6.1,4.9-11.2,11.1-11.2c0,0,0,0,0.1,0c6.1,0,11.1,4.9,11.1,11.1c0,3.5,0.1,7.2,0.2,10.8
				C232.2,293.7,227.4,298.8,221.3,299z"/>
		</g>
		<g>
			<path d="M214.3,217.3c-0.1,0.3-0.2,0.6-0.3,1C214,218,214.1,217.7,214.3,217.3z"/>
			<path d="M213.9,218.5c-0.1,0.4-0.2,0.8-0.2,1.1C213.7,219.2,213.8,218.8,213.9,218.5z"/>
			<path d="M226.4,210.4c-5.3-0.8-10.2,2.1-12.1,6.9c0.3-0.7,0.6-1.4,1-2c2.1,2.4,4.1,4.6,6.3,6.5c3.3,2.9,7.8,5,13.2,6.4l0,0
				c0.2-1.7,0.5-3.4,0.8-5.1C236.6,217.1,232.5,211.4,226.4,210.4z"/>
			<path d="M244.6,158c-5.6-2.5-12.2,0-14.7,5.6c-1.6,3.5-3.1,7.2-4.5,10.9c-2.2,5.7,0.7,12.2,6.5,14.3c1.3,0.5,2.6,0.7,3.9,0.7
				c4.5,0,8.7-2.7,10.4-7.2c1.2-3.3,2.6-6.5,4-9.6C252.7,167.1,250.2,160.5,244.6,158z"/>
			<path d="M426,61.8c-3.9,0-7.7,0-11.4,0.1c-6.1,0.2-11,5.3-10.8,11.4c0.2,6,5.1,10.8,11.1,10.8c0.1,0,0.2,0,0.3,0
				c3.5-0.1,7.2-0.1,10.8-0.1c6.1,0,11.1-5,11.1-11.1S432.2,61.8,426,61.8z"/>
			<path d="M368.9,66c-3.9,0.6-7.7,1.3-11.4,2.1c-6,1.2-9.9,7.1-8.7,13.1c1.1,5.3,5.7,8.9,10.9,8.9c0.7,0,1.5-0.1,2.2-0.2
				c3.4-0.7,6.9-1.3,10.5-1.9c6.1-1,10.2-6.7,9.2-12.7C380.7,69.2,375,65,368.9,66z"/>
			<path d="M312.8,81.9c-3.6,1.6-7.2,3.3-10.7,5.1c-5.5,2.8-7.6,9.5-4.8,15c2,3.8,5.9,6,9.9,6c1.7,0,3.5-0.4,5.1-1.2
				c3-1.6,6.2-3.1,9.4-4.5c5.6-2.5,8.2-9,5.7-14.6C325,82,318.5,79.4,312.8,81.9z"/>
			<path d="M263.5,114.7c-2.8,2.8-5.6,5.7-8.2,8.7c-4,4.6-3.5,11.7,1.1,15.7c2.1,1.8,4.7,2.7,7.3,2.7c3.1,0,6.2-1.3,8.4-3.8
				c2.2-2.6,4.6-5.1,7-7.4c4.4-4.3,4.4-11.3,0.1-15.7C275,110.5,267.9,110.4,263.5,114.7z"/>
		</g>
	</g>
</g>
<g id="poo" class="st0">
	<g class="st1">
		<path class="st2" d="M174.4,201.3c-1.3-55.7,35.1-64.3,76.5-71.3S297,76,297,76c36.7,3,50.8,43,50.8,64c0,27-5.6,43-29.1,58"/>
		<path class="st2" d="M312,276c77.1,0,118.5,15,118.5,74s-41.4,74-122.2,74s-84.6,0-160.8,0c-37.6,0-78-23-78-77s54.5-71,137.3-71"
			/>
		<path class="st2" d="M116.8,286.3C105.2,265,107.1,234,124,222s42.3-26,80.8-20"/>
		<path class="st2" d="M261.3,204c32,0,130.7-14,134.4,51c0,0,0.9,20-10.3,28"/>
	</g>
</g>
<g id="peepoo" class="st0">
	<g class="st1">
		<g>
			<path d="M239.7,158c-14.3-11.8-62.5-0.9-84.9-7c-0.2,1.1-0.3,2.2-0.4,3.3c-0.4,3.4-3.3,5.9-6.7,5.9c-0.3,0-0.5,0-0.8,0
				c-3.7-0.4-6.3-3.8-5.9-7.5c0.3-2.3,0.6-4.7,1-6.9c0.2-1,0.5-1.8,1-2.6c0,0,0,0,0,0c-13.5-15.8-24.6-47.5-52.1-42.6
				C60.8,106,44.7,155.1,53,177.9c8.4,22.9,20.4,73.6,48.2,88.1c27.8,14.5,33.6,13.7,47.1,8.5c17.8-6.8,29.9-25.4,47.6-24.8
				c17.7,0.6,40.4,2.6,54.1-16.3C263.7,214.6,256.1,171.5,239.7,158z M146.6,193.8c-0.1,0-0.1,0-0.2,0c-3.6,0-6.6-2.9-6.7-6.5
				c-0.1-2.3-0.1-4.6-0.1-6.9c0-3.7,3-6.7,6.7-6.8c0,0,0,0,0,0c3.7,0,6.7,3,6.7,6.7c0,2.1,0.1,4.3,0.1,6.6
				C153.3,190.6,150.3,193.7,146.6,193.8z"/>
		</g>
		<g>
			<path d="M142.4,144.5c-0.1,0.2-0.1,0.4-0.2,0.6C142.3,144.8,142.3,144.6,142.4,144.5z"/>
			<path d="M142.2,145.1c-0.1,0.2-0.1,0.5-0.2,0.7C142.1,145.6,142.1,145.3,142.2,145.1z"/>
			<path d="M149.7,140.3c-3.2-0.5-6.2,1.3-7.3,4.2c0.2-0.4,0.4-0.8,0.6-1.2c1.2,1.4,2.5,2.8,3.8,3.9c2,1.7,4.7,3,8,3.9l0,0
				c0.1-1,0.3-2.1,0.5-3.1C155.9,144.3,153.4,140.8,149.7,140.3z"/>
			<path d="M160.8,108.6c-3.4-1.5-7.4,0-8.9,3.4c-1,2.1-1.9,4.3-2.7,6.6c-1.3,3.5,0.4,7.4,3.9,8.7c0.8,0.3,1.6,0.4,2.4,0.4
				c2.7,0,5.3-1.7,6.3-4.4c0.8-2,1.6-3.9,2.4-5.8C165.7,114.1,164.1,110.1,160.8,108.6z"/>
			<path d="M270.5,50.4c-2.3,0-4.6,0-6.9,0.1c-3.7,0.1-6.6,3.2-6.5,6.9c0.1,3.7,3.1,6.5,6.7,6.5c0.1,0,0.1,0,0.2,0
				c2.1-0.1,4.3-0.1,6.5-0.1c3.7,0,6.7-3,6.7-6.7C277.2,53.4,274.2,50.4,270.5,50.4z"/>
			<path d="M235.9,52.9c-2.3,0.4-4.6,0.8-6.9,1.2c-3.6,0.7-6,4.3-5.3,7.9c0.6,3.2,3.5,5.4,6.6,5.4c0.4,0,0.9,0,1.3-0.1
				c2.1-0.4,4.2-0.8,6.3-1.1c3.7-0.6,6.2-4,5.6-7.7C243,54.9,239.6,52.4,235.9,52.9z"/>
			<path d="M202,62.5c-2.2,1-4.4,2-6.5,3.1c-3.3,1.7-4.6,5.8-2.9,9.1c1.2,2.3,3.5,3.6,6,3.6c1,0,2.1-0.2,3.1-0.8
				c1.8-0.9,3.7-1.9,5.7-2.7c3.4-1.5,5-5.5,3.5-8.9C209.4,62.6,205.4,61.1,202,62.5z"/>
			<path d="M172.2,82.4c-1.7,1.7-3.4,3.5-5,5.3c-2.4,2.8-2.1,7.1,0.7,9.5c1.3,1.1,2.8,1.6,4.4,1.6c1.9,0,3.8-0.8,5.1-2.3
				c1.3-1.6,2.8-3.1,4.2-4.5c2.6-2.6,2.7-6.9,0.1-9.5C179.1,79.8,174.8,79.8,172.2,82.4z"/>
		</g>
	</g>
	<g class="st1">
		<path class="st2" d="M278.1,299.7c-0.8-35.1,22.1-40.5,48.2-44.9c26.1-4.4,29-34,29-34c23.1,1.9,32,27.1,32,40.3
			c0,17-3.6,27.1-18.4,36.6"/>
		<path class="st2" d="M364.9,346.7c48.6,0,74.6,9.5,74.6,46.6s-26.1,46.6-77,46.6s-53.3,0-101.3,0c-23.7,0-49.2-14.5-49.2-48.5
			s34.4-44.7,86.5-44.7"/>
		<path class="st2" d="M241.8,353.2c-7.3-13.4-6.1-33,4.5-40.5c10.7-7.6,26.7-16.4,51-12.6"/>
		<path class="st2" d="M332.9,301.4c20.1,0,82.4-8.8,84.7,32.1c0,0,0.6,12.6-6.5,17.6"/>
	</g>
</g>
<g id="boy" class="st0">
	<path class="st1" d="M294.4,51v57.8h55.9l-57.9,57.9c-25.5-17.4-56.4-27.4-89.7-26.8C118.9,141.4,51.1,210.3,51,294.2
		c-0.1,85.4,69.4,154.9,154.8,154.8c83.9-0.1,152.8-67.9,154.3-151.8c0.6-33.2-9.4-64.2-26.8-89.7l57.9-57.9v55.9H449V51H294.4z
		 M205.6,391.2c-54.6,0-98.8-45.5-96.7-100.6c1.9-50.2,42.6-90.9,92.8-92.9c55.1-2.1,100.6,42.1,100.6,96.7
		C302.3,347.8,258.9,391.2,205.6,391.2z"/>
</g>
<g id="girl" class="st0">
	<path class="st1" d="M291.3,50c-87.5,0-158.7,71.2-158.7,158.7c0,33.1,10.2,63.8,27.5,89.2l-24.6,24.6L92,279l-42,42l43.6,43.6
		L50,408l42,42l43.5-43.5L179,450l42-42l-43.5-43.5l24.6-24.6c25.4,17.4,56.2,27.5,89.2,27.5c87.5,0,158.7-71.2,158.7-158.7
		C450,121.2,378.8,50,291.3,50z M291.3,308.1c-54.8,0-99.4-44.6-99.4-99.4c0-54.8,44.6-99.4,99.4-99.4c54.8,0,99.4,44.6,99.4,99.4
		C390.6,263.5,346.1,308.1,291.3,308.1z"/>
</g>
<g id="left" class="st0">
	<path class="st1" d="M342.6,364.8L228.1,250l114.5-114.8L307.4,100l-150,150l150,150L342.6,364.8z"/>
</g>
<g id="right" class="st0">
	<path class="st1" d="M192.6,400l150-150l-150-150l-35.2,35.2L271.9,250L157.4,364.8L192.6,400z"/>
</g>
<g id="summary" class="st0">
	<g class="st1">
		<path d="M391.1,271.8l23.9-23.9c2.4-2.4,2.4-6.3,0-8.8L378.8,203c-2.4-2.4-6.3-2.4-8.8,0l-23.9,23.9L391.1,271.8z"/>
		<polygon points="320.2,342.7 382.1,280.8 337.2,235.9 320.2,252.9 		"/>
		<path d="M286.4,376.5c-1.1,1.1-2.7,1.8-4.3,1.8L246,379c-3.5,0.1-6.3-2.7-6.3-6.2v-36.9c0-1.6,0.7-3.2,1.8-4.4l78.7-78.7V135.7
			c0-13.1-10.6-23.7-23.7-23.7h-72.3c-0.5-13.3-11.5-24-25-24s-24.4,10.7-25,24h-67.3c-13.1,0-23.7,10.6-23.7,23.7v252.6
			c0,13.1,10.6,23.7,23.7,23.7h189.6c13.1,0,23.7-10.6,23.7-23.7v-45.6L286.4,376.5z M199.2,103c5.5,0,10,4.5,10,10s-4.5,10-10,10
			c-5.5,0-10-4.5-10-10S193.7,103,199.2,103z M121.7,169.2c0-4.5,3.7-8.2,8.2-8.2h143.6c4.5,0,8.2,3.7,8.2,8.2v13.6
			c0,4.5-3.7,8.2-8.2,8.2H129.9c-4.5,0-8.2-3.7-8.2-8.2V169.2z M121.7,232.2c0-4.5,3.7-8.2,8.2-8.2h143.6c4.5,0,8.2,3.7,8.2,8.2
			v13.6c0,4.5-3.7,8.2-8.2,8.2H129.9c-4.5,0-8.2-3.7-8.2-8.2V232.2z M220.7,308.8c0,4.5-2.3,8.2-5.1,8.2h-88.9
			c-2.8,0-5.1-3.7-5.1-8.2v-13.6c0-4.5,2.3-8.2,5.1-8.2h88.9c2.8,0,5.1,3.7,5.1,8.2V308.8z"/>
	</g>
</g>
<g id="add_x5F_baby" class="st0">
	<path class="st1" d="M436.8,102.8h-39.6V63.2c0-7.3-5.9-13.2-13.2-13.2s-13.2,5.9-13.2,13.2v39.6h-39.6c-7.3,0-13.2,5.9-13.2,13.2
		s5.9,13.2,13.2,13.2h39.6v39.6c0,7.3,5.9,13.2,13.2,13.2s13.2-5.9,13.2-13.2v-39.6h39.6c7.3,0,13.2-5.9,13.2-13.2
		S444.1,102.8,436.8,102.8z"/>
	<g class="st1">
		<path d="M376.7,254.9c-9.1-29.9-26.9-57.1-50.6-77.2c-27-22.8-59-34.9-92.6-34.9c-33.6,0-65.7,12.1-92.6,34.9
			c-23.7,20-41.4,47.2-50.5,76.9c-18.6,3.3-33.8,21.5-33.8,42.1c0,18.2,12.4,32.3,30.4,35.9c14.7,65.3,73.9,110.3,146.6,110.3
			c72.7,0,132-45.1,146.6-110.6c17.4-4,29.4-18,29.4-35.7C409.5,276.7,394.8,258.7,376.7,254.9z M371.2,313.7c-0.1,0-0.1,0-0.2,0
			c-0.3,0-0.5,0-0.8,0.1c-0.1,0-0.2,0-0.3,0.1c-0.2,0-0.4,0.1-0.6,0.1c-0.1,0-0.3,0.1-0.4,0.1c-0.2,0-0.3,0.1-0.5,0.2
			c-0.2,0.1-0.3,0.1-0.5,0.2c-0.1,0.1-0.3,0.1-0.4,0.2c-0.2,0.1-0.3,0.2-0.5,0.3c-0.1,0.1-0.2,0.1-0.3,0.2c-0.2,0.1-0.3,0.2-0.5,0.3
			c-0.1,0.1-0.2,0.1-0.3,0.2c-0.1,0.1-0.3,0.2-0.4,0.3c-0.1,0.1-0.2,0.2-0.3,0.3c-0.1,0.1-0.2,0.2-0.4,0.3c-0.1,0.1-0.2,0.2-0.3,0.3
			c-0.1,0.1-0.2,0.2-0.3,0.3c-0.1,0.1-0.2,0.3-0.3,0.4c-0.1,0.1-0.2,0.2-0.2,0.4c-0.1,0.1-0.2,0.3-0.3,0.4c-0.1,0.1-0.1,0.3-0.2,0.4
			c-0.1,0.1-0.2,0.3-0.2,0.5c-0.1,0.2-0.1,0.3-0.2,0.5c-0.1,0.1-0.1,0.3-0.2,0.4c-0.1,0.2-0.1,0.4-0.2,0.6c0,0.1-0.1,0.2-0.1,0.3
			c-0.1,0.2-0.1,0.5-0.2,0.7c0,0.1,0,0.2-0.1,0.2c-10.1,59.5-62.9,101.1-128.3,101.1c-65.4,0-118.2-41.6-128.3-101.1c0,0,0,0,0,0
			c0-0.3-0.1-0.6-0.2-0.8c0,0,0-0.1,0-0.1c-0.1-0.3-0.2-0.5-0.3-0.8c0-0.1,0-0.1-0.1-0.2c-0.1-0.2-0.2-0.3-0.2-0.5
			c-0.7-1.5-1.8-2.8-3.1-3.8c-0.1-0.1-0.2-0.1-0.2-0.2c-0.1-0.1-0.2-0.1-0.3-0.2c-0.5-0.3-0.9-0.6-1.4-0.8c-1.2-0.5-2.4-0.8-3.8-0.8
			c0,0,0,0,0,0c-9.5-0.2-19-5.5-19-16.9c0-11.6,9.6-22.6,19.7-22.6c0.4,0,0.8,0,1.2,0c0.1,0,0.2,0,0.3,0c0.1,0,0.2,0,0.3,0
			c0.1,0,0.2,0,0.3,0c0.1,0,0.1,0,0.2,0c0.3,0,0.6,0,0.9-0.1c0,0,0,0,0,0c1-0.1,1.9-0.4,2.8-0.8c0,0,0,0,0.1,0
			c0.3-0.1,0.5-0.3,0.8-0.4c0,0,0,0,0.1,0c0.3-0.2,0.5-0.3,0.8-0.5c0,0,0,0,0,0c0.8-0.6,1.4-1.2,2-2c0,0,0-0.1,0.1-0.1
			c0.2-0.2,0.3-0.4,0.4-0.6c0-0.1,0.1-0.1,0.1-0.2c0.1-0.2,0.2-0.4,0.3-0.6c0.1-0.1,0.1-0.2,0.2-0.3c0.1-0.2,0.2-0.3,0.2-0.5
			c0-0.1,0.1-0.2,0.1-0.4c0.1-0.2,0.1-0.3,0.2-0.5c0-0.1,0.1-0.2,0.1-0.4c0,0,0,0,0,0c7.3-28.6,23.7-54.7,46.1-73.7
			c14.4-12.2,30.4-20.8,47.4-25.7c-6.2,8.4-9.1,17.7-8.4,27.5c1.2,16.1,10.4,29.6,24.6,36.2c5.5,2.5,11.3,3.8,16.9,3.8
			c7.7,0,15.1-2.3,21.3-6.7c11.1-8,16.8-19.2,15.6-30.7c-0.9-9.1-6.2-16.8-13.6-20.1c-5-2.2-11,0-13.2,5.1c-2.2,5,0,11,5.1,13.2
			c0.4,0.2,1.6,1.6,1.8,4.1c0.3,4.2-2.3,8.5-7.5,12.3c-5,3.6-11.7,4-18.1,1c-7.6-3.5-12.5-10.8-13.1-19.6
			c-1.4-18.3,24.3-29.3,24.6-29.4c0.7-0.3,1.3-0.6,1.9-1c26.8,1.3,52.2,11.6,74,30c22.4,19,38.8,45.1,46.1,73.7
			c0,0.1,0.1,0.2,0.1,0.3c0.2,0.6,0.4,1.2,0.7,1.8c0.1,0.1,0.1,0.2,0.2,0.3c0.1,0.2,0.2,0.3,0.3,0.4c0.1,0.1,0.1,0.2,0.2,0.3
			c0.1,0.1,0.2,0.3,0.3,0.4c0.1,0.1,0.1,0.2,0.2,0.3c0.1,0.1,0.2,0.3,0.4,0.4c0.1,0.1,0.1,0.1,0.2,0.2c0.1,0.1,0.3,0.3,0.4,0.4
			c0,0,0.1,0.1,0.1,0.1c0.8,0.7,1.6,1.2,2.5,1.6c0.1,0,0.1,0,0.2,0.1c0.2,0.1,0.4,0.2,0.6,0.2c0.1,0,0.2,0.1,0.2,0.1
			c0.2,0.1,0.4,0.1,0.6,0.2c0.1,0,0.3,0.1,0.4,0.1c0.2,0,0.3,0.1,0.5,0.1c0.3,0.1,0.6,0.1,0.9,0.1c0.1,0,0.1,0,0.2,0
			c0.2,0,0.4,0,0.6,0c0,0,0.1,0,0.1,0c0.1,0,0.1,0,0.2,0l0.5,0c10.2,0,19.7,11,19.7,22.6C389.5,304.2,384.7,313,371.2,313.7z"/>
		<path d="M198.4,299c2.8,4.7,9,6.3,13.7,3.5c4.7-2.8,6.3-9,3.5-13.7c-7.4-12.4-22.2-17.7-39.8-14.4c-17,3.2-29.4,14.7-30.8,28.4
			c-0.6,5.5,3.4,10.4,8.9,11c5.5,0.6,10.4-3.4,11-8.9c0.5-4.7,6.7-9.3,14.7-10.8C186.5,292.7,195.1,293.3,198.4,299z"/>
		<path d="M290.2,274.4c-17.6-3.4-32.4,2-39.8,14.4c-2.8,4.7-1.3,10.9,3.5,13.7c4.7,2.8,10.9,1.3,13.7-3.5c3.4-5.7,12-6.3,18.9-5
			c8,1.5,14.2,6.1,14.7,10.8c0.6,5.5,5.5,9.5,11,8.9c5.5-0.6,9.5-5.5,8.9-11C319.6,289.1,307.2,277.7,290.2,274.4z"/>
		<path d="M184.5,356c0,10,34,36,49,36s48-25,48-36C281.5,337,184.5,337,184.5,356z"/>
	</g>
</g>
<g id="swap_x5F_baby" class="st0">
	<g class="st9">
		<path d="M430,108.3c-4.6-15-13.5-28.7-25.5-38.8c-13.6-11.5-29.7-17.6-46.6-17.6c-16.9,0-33,6.1-46.6,17.6
			c-11.9,10.1-20.8,23.7-25.4,38.7c-9.4,1.6-17,10.8-17,21.2c0,9.1,6.2,16.3,15.3,18.1c7.4,32.9,37.2,55.5,73.8,55.5
			c36.6,0,66.4-22.7,73.8-55.6c8.8-2,14.8-9.1,14.8-18C446.5,119.2,439.1,110.2,430,108.3z M427.2,137.8c0,0-0.1,0-0.1,0
			c-0.1,0-0.3,0-0.4,0c-0.1,0-0.1,0-0.2,0c-0.1,0-0.2,0-0.3,0.1c-0.1,0-0.1,0-0.2,0.1c-0.1,0-0.2,0-0.2,0.1c-0.1,0-0.2,0.1-0.2,0.1
			c-0.1,0-0.1,0.1-0.2,0.1c-0.1,0-0.2,0.1-0.3,0.1c-0.1,0-0.1,0.1-0.2,0.1c-0.1,0-0.2,0.1-0.2,0.2c-0.1,0-0.1,0.1-0.2,0.1
			c-0.1,0.1-0.1,0.1-0.2,0.2c-0.1,0-0.1,0.1-0.2,0.1c-0.1,0.1-0.1,0.1-0.2,0.2c-0.1,0.1-0.1,0.1-0.2,0.2c-0.1,0.1-0.1,0.1-0.1,0.2
			c-0.1,0.1-0.1,0.1-0.2,0.2c0,0.1-0.1,0.1-0.1,0.2c-0.1,0.1-0.1,0.1-0.2,0.2c0,0.1-0.1,0.1-0.1,0.2c0,0.1-0.1,0.1-0.1,0.2
			c0,0.1-0.1,0.2-0.1,0.2c0,0.1-0.1,0.1-0.1,0.2c0,0.1-0.1,0.2-0.1,0.3c0,0.1,0,0.1-0.1,0.2c0,0.1-0.1,0.2-0.1,0.3c0,0,0,0.1,0,0.1
			c-5.1,30-31.7,50.9-64.6,50.9c-32.9,0-59.5-20.9-64.6-50.9c0,0,0,0,0,0c0-0.1-0.1-0.3-0.1-0.4c0,0,0-0.1,0-0.1
			c0-0.1-0.1-0.3-0.1-0.4c0,0,0-0.1,0-0.1c0-0.1-0.1-0.2-0.1-0.3c-0.4-0.8-0.9-1.4-1.5-1.9c0,0-0.1-0.1-0.1-0.1
			c-0.1,0-0.1-0.1-0.2-0.1c-0.2-0.2-0.5-0.3-0.7-0.4c-0.6-0.3-1.2-0.4-1.9-0.4c0,0,0,0,0,0c-4.8-0.1-9.6-2.8-9.6-8.5
			c0-5.9,4.8-11.4,9.9-11.4c0.2,0,0.4,0,0.6,0c0.1,0,0.1,0,0.2,0c0,0,0.1,0,0.1,0c0.1,0,0.1,0,0.2,0c0,0,0.1,0,0.1,0
			c0.2,0,0.3,0,0.5,0c0,0,0,0,0,0c0.5-0.1,1-0.2,1.4-0.4c0,0,0,0,0,0c0.1-0.1,0.3-0.1,0.4-0.2c0,0,0,0,0,0c0.1-0.1,0.3-0.2,0.4-0.3
			c0,0,0,0,0,0c0.4-0.3,0.7-0.6,1-1c0,0,0,0,0,0c0.1-0.1,0.2-0.2,0.2-0.3c0,0,0-0.1,0.1-0.1c0.1-0.1,0.1-0.2,0.2-0.3
			c0,0,0.1-0.1,0.1-0.2c0-0.1,0.1-0.2,0.1-0.3c0-0.1,0.1-0.1,0.1-0.2c0-0.1,0.1-0.2,0.1-0.3c0-0.1,0-0.1,0.1-0.2c0,0,0,0,0,0
			c3.7-14.4,11.9-27.5,23.2-37.1c7.2-6.1,15.3-10.5,23.8-12.9c-3.1,4.2-4.6,8.9-4.2,13.8c0.6,8.1,5.2,14.9,12.4,18.2
			c2.8,1.3,5.7,1.9,8.5,1.9c3.9,0,7.6-1.1,10.7-3.4c5.6-4,8.5-9.7,7.9-15.5c-0.5-4.6-3.1-8.5-6.8-10.1c-2.5-1.1-5.5,0-6.6,2.6
			c-1.1,2.5,0,5.5,2.6,6.6c0.2,0.1,0.8,0.8,0.9,2.1c0.2,2.1-1.2,4.3-3.8,6.2c-2.5,1.8-5.9,2-9.1,0.5c-3.8-1.8-6.3-5.5-6.6-9.8
			c-0.7-9.2,12.2-14.7,12.4-14.8c0.3-0.1,0.6-0.3,0.9-0.5c13.5,0.6,26.3,5.8,37.2,15.1c11.3,9.5,19.5,22.7,23.2,37.1
			c0,0.1,0,0.1,0,0.2c0.1,0.3,0.2,0.6,0.4,0.9c0,0.1,0.1,0.1,0.1,0.2c0,0.1,0.1,0.1,0.1,0.2c0,0.1,0.1,0.1,0.1,0.2
			c0,0.1,0.1,0.1,0.2,0.2c0,0,0.1,0.1,0.1,0.1c0.1,0.1,0.1,0.1,0.2,0.2c0,0,0.1,0.1,0.1,0.1c0.1,0.1,0.1,0.1,0.2,0.2c0,0,0,0,0.1,0
			c0.4,0.3,0.8,0.6,1.3,0.8c0,0,0.1,0,0.1,0c0.1,0,0.2,0.1,0.3,0.1c0,0,0.1,0,0.1,0c0.1,0,0.2,0.1,0.3,0.1c0.1,0,0.1,0,0.2,0
			c0.1,0,0.2,0,0.2,0c0.1,0,0.3,0,0.4,0.1c0,0,0.1,0,0.1,0c0.1,0,0.2,0,0.3,0c0,0,0,0,0.1,0c0,0,0.1,0,0.1,0l0.3,0
			c5.1,0,9.9,5.5,9.9,11.4C436.4,133.1,434,137.5,427.2,137.8z"/>
		<path d="M340.3,130.5c1.4,2.4,4.5,3.2,6.9,1.7c2.4-1.4,3.2-4.5,1.7-6.9c-3.7-6.2-11.2-8.9-20-7.2c-8.6,1.6-14.8,7.4-15.5,14.3
			c-0.3,2.8,1.7,5.2,4.5,5.5c2.8,0.3,5.2-1.7,5.5-4.5c0.2-2.4,3.3-4.7,7.4-5.4C334.2,127.3,338.6,127.6,340.3,130.5z"/>
		<path d="M386.4,118.1c-8.8-1.7-16.3,1-20,7.2c-1.4,2.4-0.6,5.5,1.7,6.9c2.4,1.4,5.5,0.6,6.9-1.7c1.7-2.9,6-3.2,9.5-2.5
			c4,0.8,7.1,3.1,7.4,5.4c0.3,2.8,2.8,4.8,5.5,4.5c2.8-0.3,4.8-2.8,4.5-5.5C401.2,125.5,395,119.7,386.4,118.1z"/>
		<path d="M333.3,159.2c0,5,17.1,18.1,24.7,18.1s24.2-12.6,24.2-18.1C382.1,149.6,333.3,149.6,333.3,159.2z"/>
	</g>
	<g class="st1">
		<path d="M351.7,271c-8.4-27.6-24.9-52.8-46.8-71.4c-24.9-21.1-54.6-32.3-85.7-32.3c-31.1,0-60.7,11.2-85.7,32.3
			c-21.9,18.5-38.3,43.6-46.7,71.2c-17.2,3-31.3,19.9-31.3,38.9c0,16.8,11.5,29.9,28.1,33.2c13.6,60.4,68.4,102,135.6,102
			c67.3,0,122.1-41.7,135.6-102.3c16.1-3.7,27.2-16.7,27.2-33C382,291,368.4,274.4,351.7,271z M346.5,325.3c-0.1,0-0.1,0-0.2,0
			c-0.2,0-0.5,0-0.7,0.1c-0.1,0-0.2,0-0.3,0.1c-0.2,0-0.4,0.1-0.6,0.1c-0.1,0-0.3,0.1-0.4,0.1c-0.2,0-0.3,0.1-0.5,0.1
			c-0.2,0.1-0.3,0.1-0.5,0.2c-0.1,0.1-0.2,0.1-0.4,0.2c-0.2,0.1-0.3,0.2-0.5,0.2c-0.1,0.1-0.2,0.1-0.3,0.2c-0.2,0.1-0.3,0.2-0.5,0.3
			c-0.1,0.1-0.2,0.1-0.3,0.2c-0.1,0.1-0.3,0.2-0.4,0.3c-0.1,0.1-0.2,0.2-0.3,0.3c-0.1,0.1-0.2,0.2-0.3,0.3c-0.1,0.1-0.2,0.2-0.3,0.3
			c-0.1,0.1-0.2,0.2-0.3,0.3c-0.1,0.1-0.2,0.2-0.3,0.4c-0.1,0.1-0.2,0.2-0.2,0.3c-0.1,0.1-0.2,0.3-0.3,0.4c-0.1,0.1-0.1,0.2-0.2,0.4
			c-0.1,0.1-0.2,0.3-0.2,0.4c-0.1,0.1-0.1,0.3-0.2,0.4c-0.1,0.1-0.1,0.3-0.2,0.4c-0.1,0.2-0.1,0.4-0.2,0.5c0,0.1-0.1,0.2-0.1,0.3
			c-0.1,0.2-0.1,0.4-0.1,0.6c0,0.1,0,0.1-0.1,0.2c-9.4,55.1-58.2,93.5-118.7,93.5c-60.5,0-109.3-38.5-118.7-93.5c0,0,0,0,0,0
			c0-0.3-0.1-0.5-0.2-0.8c0,0,0-0.1,0-0.1c-0.1-0.2-0.1-0.5-0.2-0.7c0-0.1,0-0.1-0.1-0.2c-0.1-0.2-0.1-0.3-0.2-0.5
			c-0.6-1.4-1.6-2.6-2.8-3.5c-0.1-0.1-0.1-0.1-0.2-0.2c-0.1-0.1-0.2-0.1-0.3-0.2c-0.4-0.3-0.9-0.5-1.3-0.7c-1.1-0.5-2.3-0.7-3.5-0.8
			c0,0,0,0,0,0c-8.8-0.2-17.6-5.1-17.6-15.6c0-10.8,8.9-20.9,18.3-20.9c0.4,0,0.7,0,1.1,0c0.1,0,0.2,0,0.3,0c0.1,0,0.2,0,0.3,0
			c0.1,0,0.2,0,0.3,0c0,0,0.1,0,0.1,0c0.3,0,0.6,0,0.8-0.1c0,0,0,0,0,0c0.9-0.1,1.8-0.4,2.6-0.8c0,0,0,0,0,0
			c0.2-0.1,0.5-0.2,0.7-0.4c0,0,0,0,0.1,0c0.2-0.1,0.5-0.3,0.7-0.5c0,0,0,0,0,0c0.7-0.5,1.3-1.1,1.9-1.8c0,0,0-0.1,0.1-0.1
			c0.1-0.2,0.3-0.4,0.4-0.6c0-0.1,0.1-0.1,0.1-0.2c0.1-0.2,0.2-0.3,0.3-0.5c0-0.1,0.1-0.2,0.1-0.3c0.1-0.2,0.1-0.3,0.2-0.5
			c0-0.1,0.1-0.2,0.1-0.3c0.1-0.2,0.1-0.3,0.2-0.5c0-0.1,0.1-0.2,0.1-0.3c0,0,0,0,0,0c6.8-26.4,21.9-50.6,42.6-68.2
			c13.3-11.3,28.1-19.3,43.8-23.7c-5.7,7.8-8.4,16.4-7.7,25.4c1.1,14.9,9.6,27.4,22.8,33.5c5.1,2.4,10.4,3.5,15.7,3.5
			c7.1,0,14-2.1,19.7-6.2c10.3-7.4,15.6-17.8,14.5-28.4c-0.9-8.4-5.7-15.5-12.6-18.6c-4.7-2.1-10.1,0-12.2,4.7
			c-2.1,4.7,0,10.1,4.7,12.2c0.4,0.2,1.5,1.5,1.7,3.8c0.3,3.9-2.1,7.9-6.9,11.3c-4.6,3.3-10.9,3.7-16.7,0.9
			c-7-3.3-11.5-10-12.1-18.1c-1.3-16.9,22.5-27.1,22.7-27.2c0.6-0.3,1.2-0.6,1.7-0.9c24.7,1.2,48.3,10.7,68.4,27.8
			c20.7,17.5,35.8,41.7,42.6,68.1c0,0.1,0.1,0.2,0.1,0.3c0.2,0.6,0.4,1.1,0.7,1.7c0,0.1,0.1,0.2,0.1,0.3c0.1,0.1,0.2,0.3,0.3,0.4
			c0.1,0.1,0.1,0.2,0.2,0.3c0.1,0.1,0.2,0.3,0.3,0.4c0.1,0.1,0.1,0.2,0.2,0.3c0.1,0.1,0.2,0.3,0.3,0.4c0.1,0.1,0.1,0.1,0.2,0.2
			c0.1,0.1,0.3,0.3,0.4,0.4c0,0,0.1,0.1,0.1,0.1c0.7,0.6,1.5,1.1,2.3,1.5c0,0,0.1,0,0.1,0.1c0.2,0.1,0.4,0.2,0.6,0.2
			c0.1,0,0.2,0.1,0.2,0.1c0.2,0.1,0.3,0.1,0.5,0.2c0.1,0,0.2,0.1,0.4,0.1c0.1,0,0.3,0.1,0.4,0.1c0.3,0,0.5,0.1,0.8,0.1
			c0.1,0,0.1,0,0.2,0c0.2,0,0.4,0,0.5,0c0,0,0.1,0,0.1,0c0,0,0.1,0,0.1,0l0.5,0c9.4,0,18.3,10.2,18.3,20.9
			C363.5,316.5,359.1,324.6,346.5,325.3z"/>
		<path d="M186.8,311.7c2.6,4.4,8.3,5.8,12.7,3.2c4.4-2.6,5.8-8.3,3.2-12.7c-6.8-11.4-20.6-16.4-36.8-13.3
			c-15.7,3-27.2,13.6-28.5,26.3c-0.5,5.1,3.2,9.6,8.3,10.1c5.1,0.5,9.6-3.2,10.1-8.3c0.5-4.4,6.2-8.6,13.6-10
			C175.7,305.9,183.7,306.5,186.8,311.7z"/>
		<path d="M271.6,289c-16.2-3.1-30,1.9-36.8,13.3c-2.6,4.4-1.2,10.1,3.2,12.7c4.4,2.6,10.1,1.2,12.7-3.2c3.1-5.2,11.1-5.8,17.5-4.6
			c7.4,1.4,13.1,5.6,13.6,10c0.5,5.1,5.1,8.8,10.1,8.3c5.1-0.5,8.8-5.1,8.3-10.1C298.8,302.5,287.4,292,271.6,289z"/>
		<path d="M173.9,364.4c0,9.2,31.4,33.3,45.3,33.3s44.4-23.1,44.4-33.3C263.6,346.9,173.9,346.9,173.9,364.4z"/>
	</g>
	<path class="st1" d="M276.3,72.7c-5.4-6.1-12.4-10.7-20-13.7c-7.6-3.1-15.7-4.5-23.8-4.8c-8.1-0.3-16.3,0.6-24.2,2.6
		c-7.9,1.9-15.6,4.9-22.9,9c-7.2,4.1-14,9.3-19.8,15.7c-5.8,6.4-10.5,14.1-13.4,22.6c-1.4,4.2-2.4,8.7-2.9,13.1
		c-0.3,3.3-0.4,6.7-0.2,10c-0.4-0.3-0.9-0.6-1.3-0.9c-4.2-2.8-8.6-5.4-13.2-7.7c-2.3-1.2-4.7-2.2-7.2-3.2c-2.5-0.9-5.2-1.7-8.1-1.9
		c-1.7-0.2-3.4,0.9-3.9,2.6c-0.7,2,0.4,4.1,2.4,4.8l0.3,0.1c3.7,1.2,7.5,3.9,11,6.7c3.5,2.9,6.9,6.1,10.2,9.4
		c3.3,3.3,6.4,6.8,9.5,10.4c1.5,1.8,3,3.6,4.5,5.4l2.2,2.7c0.7,0.9,1.5,1.9,2.1,2.7c0.4,0.6,0.9,1.1,1.5,1.6
		c4.2,3.7,10.5,3.3,14.2-0.9c0.8-0.9,1.4-2,1.8-3.1c0.4-1,0.9-2.1,1.3-3.1l1.4-3.2c1-2.1,2-4.3,3-6.4c2-4.2,4.2-8.4,6.5-12.5
		c2.3-4.1,4.7-8,7.4-11.7c2.7-3.6,5.7-7.2,8.9-9.3l0.2-0.1c1.4-0.9,2.1-2.8,1.5-4.5c-0.7-2-2.9-3-4.9-2.2c-2.8,1-5.2,2.5-7.4,4
		c-2.2,1.5-4.2,3.2-6.2,4.9c-3.9,3.4-7.4,7.1-10.8,10.9c-1.9,2.2-3.8,4.4-5.6,6.6c0-0.3-0.1-0.6-0.1-0.9c-0.7-6.2-0.4-12.3,1.2-18.3
		c1.5-5.9,4.3-11.6,8.2-16.7c3.9-5.1,8.8-9.7,14.4-13.5c11.1-7.6,24.7-12.5,38.6-13.5c3.5-0.3,7-0.2,10.4,0
		c3.5,0.3,6.9,0.8,10.2,1.7c6.7,1.8,13,4.9,18.3,9.5l0,0c1.2,1,3.1,1.1,4.3,0C277.4,76.1,277.5,74,276.3,72.7z"/>
	<path class="st9" d="M383.1,279.3c4.7,1.1,9.7,1,14.5-0.2c4.8-1.1,9.2-3.2,13.3-5.8c4.1-2.6,7.7-5.9,10.9-9.6
		c3.2-3.7,5.9-7.8,8.1-12.3c2.1-4.5,3.7-9.3,4.3-14.5c0.6-5.1,0.3-10.5-1.2-15.6c-0.8-2.6-1.8-5.1-3.1-7.4c-1-1.7-2.1-3.4-3.3-5
		c0.3,0,0.6,0,1,0c3-0.1,6-0.3,9.1-0.8c1.5-0.2,3.1-0.5,4.6-0.9c1.5-0.4,3.1-1,4.6-1.8c0.9-0.5,1.3-1.6,1-2.6
		c-0.4-1.2-1.6-1.9-2.8-1.5l-0.2,0c-2.2,0.7-5,0.7-7.7,0.5c-2.7-0.2-5.5-0.6-8.2-1.1c-2.7-0.5-5.5-1.1-8.2-1.8
		c-1.4-0.3-2.7-0.7-4.1-1.1l-2-0.6c-0.7-0.2-1.4-0.4-1.9-0.6c-0.4-0.1-0.8-0.2-1.3-0.3c-3.3-0.4-6.3,2-6.6,5.3
		c-0.1,0.7,0,1.5,0.2,2.1c0.1,0.6,0.3,1.3,0.4,2l0.4,2.1c0.3,1.4,0.5,2.8,0.7,4.1c0.5,2.8,0.8,5.6,1.1,8.3c0.3,2.8,0.4,5.6,0.4,8.3
		c-0.1,2.7-0.3,5.4-1.2,7.6l-0.1,0.1c-0.4,1-0.1,2.1,0.8,2.7c1,0.7,2.4,0.4,3.1-0.6c1-1.5,1.7-3,2.2-4.5c0.6-1.5,1-3,1.3-4.5
		c0.7-3,1.2-6,1.5-9c0.2-1.7,0.4-3.4,0.5-5.1c0.1,0.1,0.3,0.3,0.4,0.4c2.5,2.8,4.4,5.9,5.7,9.3c1.3,3.4,1.9,7.2,1.7,11
		c-0.2,3.8-1,7.8-2.4,11.5c-2.8,7.6-7.8,14.6-14.2,19.9c-1.6,1.3-3.3,2.5-5.1,3.6c-1.8,1.1-3.6,2-5.6,2.7c-3.9,1.4-8,2.1-12.2,1.7
		l0,0c-1-0.1-1.9,0.5-2.1,1.5C381.4,278,382,279,383.1,279.3z"/>
</g>
<g id="favicon">
	<circle class="st10" cx="250" cy="250" r="250"/>
	<g>
		<path class="st11" d="M302.5,163.6h7.5l-14.8,20.1c-2,2.7-2.4,6.5-0.8,9.5c1.5,3.1,4.7,5,8.1,5h25.5c5,0,9.1-4.1,9.1-9.1
			s-4.1-9.1-9.1-9.1h-7.5l14.8-20.1c2-2.7,2.4-6.5,0.8-9.5c-1.5-3.1-4.7-5-8.1-5h-25.5c-5,0-9.1,4.1-9.1,9.1
			S297.5,163.6,302.5,163.6z"/>
		<path class="st11" d="M398.5,151.8h-24.4l31.6-42.8c2-2.7,2.4-6.5,0.8-9.5c-1.5-3.1-4.7-5-8.1-5h-42.3c-5,0-9.1,4.1-9.1,9.1
			c0,5,4.1,9.1,9.1,9.1h24.4l-31.6,42.8c-2,2.7-2.4,6.5-0.8,9.5c1.5,3.1,4.7,5,8.1,5h42.3c5,0,9.1-4.1,9.1-9.1
			S403.5,151.8,398.5,151.8z"/>
		<g>
			<path class="st11" d="M340.5,279.1c-8.3-27.2-24.4-51.9-46.1-70.2c-24.4-20.7-53.5-31.6-84.1-31.7l0,0l0,0c0,0,0,0-0.1,0l0,0
				c-30.5,0-59.6,11-84.1,31.7c-21.4,18.2-37.6,42.8-46,69.9c-16.9,3-30.7,19.5-30.7,38.3c0,16.5,11.3,29.4,27.6,32.7
				C90.6,409.1,144.3,450,210.4,450s119.9-41,133.2-100.4c15.8-3.6,26.7-16.4,26.7-32.4C370.3,298.8,357,282.5,340.5,279.1z
				 M336.6,332.3c-4.6-0.4-8.8,2.9-9.5,7.5c-9.3,54.2-57.2,92-116.6,92S103.1,394,93.9,339.9l0,0c-0.1-0.3-0.1-0.5-0.2-0.8V339
				c-0.1-0.3-0.2-0.5-0.3-0.7c0-0.1,0-0.1-0.1-0.2c-0.1-0.2-0.1-0.3-0.2-0.5c-1.5-3.2-4.5-5.3-8.1-5.4l0,0
				c-8.6-0.2-17.3-5.1-17.3-15.4c0-10.5,8.6-20.4,17.8-20.5h0.2c0.4,0,0.9,0.1,1.5,0.1l0,0c0.3,0,0.5,0,0.9-0.1c0.1,0,0.2,0,0.2,0
				c0.2,0,0.5-0.1,0.6-0.1c0.1,0,0.2,0,0.3-0.1c0.2,0,0.4-0.1,0.5-0.1c0.1,0,0.2-0.1,0.4-0.1c0.2-0.1,0.3-0.1,0.5-0.2
				c0.1,0,0.2-0.1,0.4-0.1c0.3-0.1,0.5-0.2,0.7-0.4c0.1-0.1,0.2-0.1,0.3-0.2c0.2-0.1,0.3-0.2,0.5-0.3c0.1-0.1,0.2-0.1,0.3-0.2
				c0.2-0.1,0.3-0.2,0.5-0.3c0.1-0.1,0.2-0.1,0.3-0.2c0.2-0.1,0.3-0.3,0.5-0.4c0.1-0.1,0.1-0.1,0.2-0.2c0.2-0.2,0.3-0.3,0.5-0.5
				l0.1-0.1c0.4-0.5,0.6-0.9,0.9-1.4c0-0.1,0.1-0.2,0.1-0.2c0.1-0.2,0.2-0.4,0.3-0.5c0.1-0.1,0.1-0.3,0.2-0.4
				c0.1-0.1,0.1-0.3,0.2-0.4c0.1-0.2,0.1-0.3,0.1-0.5c0-0.1,0-0.1,0.1-0.2c6.7-26,21.5-49.8,41.9-67c13.1-11.1,27.6-18.9,43.1-23.3
				c-5.6,7.6-8.2,16.1-7.5,24.9c1.1,14.6,9.5,26.9,22.4,32.9c5,2.3,10.3,3.5,15.4,3.5c7,0,13.7-2.1,19.4-6.1
				c10.1-7.3,15.3-17.4,14.2-27.9c-0.8-8.3-5.5-15.3-12.4-18.4c-4.5-2.1-10,0-12,4.5c-2.1,4.5,0,10,4.5,12c0.4,0.2,1.5,1.4,1.7,3.6
				c0.4,3.8-2,7.8-6.8,11.3c-4.5,3.3-10.6,3.6-16.4,0.9c-6.9-3.2-11.3-9.8-11.9-17.8c-1.2-16.5,21.9-26.5,22.4-26.6
				c0.6-0.3,1.2-0.5,1.6-0.9c24.3,1.2,47.4,10.5,67.2,27.3c20.4,17.2,35.3,41,41.9,66.9c0.5,1.6,1.3,3.1,2.4,4.2
				c0.1,0.1,0.2,0.2,0.2,0.2c0.1,0.1,0.1,0.1,0.2,0.2c1.6,1.5,3.7,2.4,6.1,2.4h0.7c9.2,0,17.9,10,17.9,20.5
				C352.2,327.3,344,331.6,336.6,332.3z"/>
			<path class="st11" d="M210.4,368.2c-7.5,0-13.5,6-13.5,13.5c0,7.5,6,13.5,13.5,13.5s13.5-6,13.5-13.5S217.8,368.2,210.4,368.2z"
				/>
			<path class="st11" d="M182.4,300.9c-4.6-1.9-10,0.3-11.9,4.9c0,0.1-3.9,9-12.4,9.2c-8.4-0.1-12.4-9.1-12.4-9.2
				c-1.9-4.6-7.3-6.8-11.9-4.9c-4.6,1.9-6.8,7.2-4.8,11.7c3.1,7.6,12.7,20.3,29.1,20.4c16.4-0.1,26-12.8,29.1-20.4
				C189.2,308,187,302.8,182.4,300.9z"/>
			<path class="st11" d="M284.8,300.9c-4.6-1.9-10,0.3-11.9,4.9c0,0.1-3.9,9-12.4,9.2c-8.4-0.1-12.4-9.1-12.4-9.2
				c-1.9-4.6-7.3-6.8-11.9-4.9c-4.6,1.9-6.8,7.2-4.8,11.7c3.1,7.6,12.7,20.3,29.1,20.4c16.4-0.1,26-12.8,29.1-20.4
				C291.6,308,289.4,302.8,284.8,300.9z"/>
		</g>
	</g>
</g>
</svg>
