<?xml version="1.0" standalone="no"?>
<!DOCTYPE svg PUBLIC "-//W3C//DTD SVG 20010904//EN"
 "http://www.w3.org/TR/2001/REC-SVG-20010904/DTD/svg10.dtd">
<svg version="1.0" xmlns="http://www.w3.org/2000/svg"
 width="700.000000pt" height="700.000000pt" viewBox="0 0 700.000000 700.000000"
 preserveAspectRatio="xMidYMid meet">
<metadata>
Created by potrace 1.11, written by Peter Selinger 2001-2013
</metadata>
<g transform="translate(0.000000,700.000000) scale(0.100000,-0.100000)"
fill="#000000" stroke="none">
<path d="M3265 6994 c-450 -45 -721 -107 -1070 -246 -1028 -409 -1820 -1316
-2089 -2393 -76 -303 -101 -518 -101 -855 0 -482 73 -866 247 -1305 409 -1028
1316 -1820 2393 -2089 303 -76 518 -101 855 -101 482 0 866 73 1305 247 1028
409 1820 1316 2089 2393 76 303 101 518 101 855 0 337 -25 552 -101 855 -207
831 -716 1555 -1439 2047 -455 310 -955 496 -1540 574 -104 14 -564 27 -650
18z m2373 -1332 c34 -19 62 -72 62 -115 0 -46 4 -39 -262 -399 -109 -147 -198
-270 -198 -273 0 -3 83 -5 185 -5 143 0 192 -3 214 -14 87 -45 81 -174 -9
-221 -42 -21 -644 -22 -695 -1 -62 26 -91 106 -61 165 9 17 113 162 231 322
118 159 215 292 215 294 0 2 -84 5 -187 7 -157 2 -192 6 -212 20 -61 43 -77
114 -40 174 11 19 21 34 22 34 1 0 20 7 42 15 55 20 657 17 693 -3z m-969
-727 c35 -30 55 -83 46 -124 -3 -15 -55 -95 -116 -177 l-110 -149 73 -5 c45
-4 83 -13 100 -24 29 -19 58 -72 58 -106 0 -32 -26 -76 -59 -99 -27 -20 -42
-21 -246 -21 -241 0 -261 4 -290 66 -33 69 -24 89 128 294 l85 115 -72 5 c-81
6 -117 24 -142 72 -25 49 -13 106 30 145 l36 33 224 0 224 0 31 -25z m-1584
-426 c228 -19 411 -69 622 -169 465 -221 840 -639 1020 -1139 l38 -104 68 -28
c119 -48 200 -117 270 -232 50 -82 68 -144 74 -250 6 -90 -4 -143 -39 -224
-45 -102 -161 -204 -274 -239 -53 -17 -54 -18 -69 -73 -84 -303 -217 -544
-419 -759 -740 -785 -2122 -785 -2862 0 -179 191 -307 405 -384 643 -18 55
-38 116 -44 135 -10 28 -19 36 -54 46 -124 36 -240 134 -292 246 -127 274 34
627 327 718 l57 17 27 79 c33 101 126 296 186 394 335 543 875 891 1458 940
134 11 159 11 290 -1z"/>
<path d="M2935 4224 c-94 -55 -189 -148 -218 -213 -61 -134 9 -312 146 -371
106 -46 211 -23 279 61 53 66 54 131 3 171 -79 62 -71 169 18 214 90 47 221
-50 263 -195 73 -249 -168 -531 -454 -531 -245 0 -465 182 -517 427 -28 130
-16 223 45 346 21 42 35 77 30 77 -17 0 -166 -58 -237 -93 -274 -133 -503
-336 -687 -607 -76 -111 -177 -319 -216 -445 -46 -146 -50 -154 -86 -182 -25
-18 -52 -27 -102 -33 -85 -9 -118 -26 -175 -90 -135 -150 -87 -359 93 -400 25
-5 63 -12 84 -16 59 -9 101 -55 115 -129 95 -479 399 -869 846 -1085 491 -238
1124 -230 1605 22 160 83 256 154 390 288 210 208 343 450 406 738 28 129 50
155 139 167 110 16 198 78 225 160 30 90 -13 222 -94 291 -40 34 -117 64 -164
64 -39 0 -87 36 -105 77 -9 21 -27 75 -42 121 -204 653 -814 1169 -1430 1208
l-80 6 -80 -48z m-945 -1454 c14 -9 43 -43 65 -76 45 -66 102 -104 156 -104
55 0 118 39 155 95 62 96 94 116 167 106 37 -5 85 -54 93 -96 8 -46 -9 -94
-61 -164 -170 -231 -466 -254 -658 -52 -63 66 -107 146 -107 194 0 46 38 99
80 114 41 13 75 8 110 -17z m1435 4 c12 -8 38 -40 58 -71 45 -70 92 -104 150
-110 59 -7 119 24 160 84 56 81 77 102 113 112 76 21 154 -36 154 -113 0 -51
-42 -130 -107 -197 -192 -202 -488 -179 -658 52 -75 102 -82 170 -25 228 41
40 106 46 155 15z m-402 -948 c39 -16 82 -61 96 -99 25 -66 4 -164 -46 -209
-98 -89 -262 -47 -304 79 -39 120 49 243 174 243 26 0 62 -6 80 -14z"/>
</g>
</svg>
